<svg width="145" height="93" viewBox="0 0 145 93" fill="none" xmlns="http://www.w3.org/2000/svg">
<path d="M63.6409 86.3576C61.009 86.3576 59.3926 83.9677 59.3926 81.413V67.3826C59.3926 62.5822 61.7343 60.7898 62.8741 58.5029L62.957 58.2763L62.5632 58.1527C61.5893 57.7406 60.9054 56.7723 60.9054 55.6598V47.6866C60.9054 46.1826 62.1281 44.967 63.6202 44.967H63.9932L66.6043 26.775C66.6872 26.2187 67.1638 25.8066 67.7234 25.8066H74.6864C75.246 25.8066 75.7226 26.2187 75.8055 26.7544L78.7689 44.967H79.0798C80.5926 44.967 81.8153 46.1826 81.8153 47.6866V55.6598C81.8153 56.5869 81.3386 57.411 80.6133 57.9055L80.1988 58.1321L80.3439 58.5029C81.4837 60.7898 83.8254 62.5822 83.8254 67.3826V81.413C83.8254 83.9677 82.209 86.3576 79.5771 86.3576H63.6202H63.6409ZM79.5771 84.0913C80.5097 84.0913 81.5458 83.2054 81.5458 81.413V67.3826C81.5458 65.0751 80.9034 63.6742 80.1574 62.4586C79.6186 61.5727 78.8311 60.5838 78.2508 59.3888L77.8571 58.3587H65.3609L64.9672 59.3888C64.3869 60.5838 63.6202 61.5727 63.0606 62.4586C62.3975 63.5299 61.8172 64.7249 61.6929 66.5585V66.7234L62.1695 66.6821H75.163C76.6344 66.6821 77.8364 67.8771 77.8364 69.3399V77.107C77.8364 78.5698 76.6344 79.7648 75.163 79.7648H62.1695L61.6722 79.7236V81.413C61.6722 83.2054 62.7083 84.0913 63.6409 84.0913H79.5978H79.5771ZM75.163 77.4985C75.391 77.4985 75.5568 77.3131 75.5568 77.107V69.3399C75.5568 69.1133 75.3703 68.9484 75.163 68.9484H62.1695C61.9415 68.9484 61.7758 69.1339 61.7758 69.3399V77.107C61.7758 77.3131 61.9623 77.4985 62.1695 77.4985H75.163ZM64.7392 74.2021C64.1175 74.2021 63.5994 73.687 63.5994 73.069C63.5994 72.4509 64.1175 71.9358 64.7392 71.9358H71.5572C72.1789 71.9358 72.697 72.4509 72.697 73.069C72.697 73.687 72.1789 74.2021 71.5572 74.2021H64.7392ZM64.9879 65.446C64.8014 65.446 64.6149 65.4048 64.4491 65.3018C63.8896 64.9927 63.703 64.3129 63.9932 63.7566L65.879 60.3572C66.1898 59.8009 66.8737 59.6155 67.4332 59.9245C67.9928 60.2335 68.1793 60.9134 67.8892 61.4697L66.0033 64.8691C65.7961 65.24 65.4023 65.4666 64.9879 65.4666V65.446ZM79.1005 56.113C79.3492 56.113 79.5357 55.9276 79.5357 55.6804V47.7072C79.5357 47.46 79.3284 47.2745 79.1005 47.2745H63.5994C63.3507 47.2745 63.1642 47.4806 63.1642 47.7072V55.6804C63.1642 55.9276 63.3507 56.113 63.5994 56.113H79.1005ZM65.9205 54.7326C65.278 54.7326 64.7807 54.2176 64.7807 53.5995V49.685C64.7807 49.0669 65.2988 48.5519 65.9205 48.5519C66.5422 48.5519 67.0602 49.0669 67.0602 49.685V53.5995C67.0602 54.2176 66.5422 54.7326 65.9205 54.7326ZM76.4686 44.9876L73.7124 28.0729H68.7181L66.2935 44.9876H76.4893H76.4686Z" fill="#264092"/>
</svg>
