<svg width="62" height="66" viewBox="0 0 62 66" fill="none" xmlns="http://www.w3.org/2000/svg">
<path d="M25.4947 65.8057C25.3067 65.8057 25.1186 65.8057 24.9305 65.8057C24.032 65.7215 23.1543 65.3639 22.3811 64.7538L2.61241 48.4274C0.606293 46.7653 0.313738 43.7988 1.96461 41.7791L33.873 2.22466C35.5239 0.204934 38.4912 -0.0896206 40.4765 1.57245L60.2451 17.8986C62.2512 19.5606 62.5438 22.5271 60.8929 24.5468L28.9845 64.1015C28.086 65.1955 26.7904 65.8057 25.4738 65.8267L25.4947 65.8057ZM25.3694 63.4914C25.3694 63.4914 25.5156 63.4914 25.5992 63.4914C26.2052 63.4283 26.8113 63.1337 27.2083 62.6287L59.1167 23.0741C59.9526 22.0432 59.8063 20.5284 58.7823 19.6869L39.0137 3.36076C37.9897 2.5192 36.4642 2.66647 35.6283 3.69737L3.71996 43.2518C2.88407 44.2827 3.03036 45.7975 4.05432 46.6391L23.823 62.9654C24.1991 63.281 24.6589 63.4703 25.1186 63.5124C25.2022 63.5124 25.2649 63.5124 25.3485 63.5124L25.3694 63.4914ZM25.3694 62.3552C24.6171 62.3552 23.9484 62.0396 23.4468 61.6399C22.9453 61.2401 22.8826 60.5037 23.2796 60.0198C23.6767 59.5148 24.4081 59.4517 24.9096 59.8515C25.1186 60.0198 25.2649 60.0618 25.3275 60.0618C25.3693 60.0618 25.3903 60.0619 25.453 60.0198C25.4948 59.9987 25.5783 59.9356 25.6828 59.8094C26.0799 59.3044 26.8112 59.2413 27.2919 59.6411C27.7934 60.0408 27.8561 60.7773 27.4591 61.2612C27.1874 61.5978 26.874 61.8713 26.4978 62.0606C26.1217 62.25 25.7455 62.3552 25.3694 62.3552ZM25.9127 58.5891C24.7424 58.5891 23.5513 58.1894 22.5691 57.3899C20.3332 55.5385 19.9988 52.2144 21.8377 49.9632C23.6767 47.7121 26.9784 47.3754 29.2144 49.2269C31.4504 51.0783 31.7639 54.4024 29.9458 56.6536C28.9219 57.9159 27.4173 58.5681 25.9127 58.5891ZM25.9754 56.2748C26.7904 56.2538 27.6053 55.8751 28.1696 55.2019C29.1935 53.9395 29.0055 52.0671 27.7725 51.0362C26.5187 50.0053 24.6588 50.1736 23.6349 51.457C22.6109 52.7193 22.7781 54.5917 24.0319 55.6226C24.5126 56.0013 25.0559 56.2328 25.6201 56.2748C25.7455 56.2748 25.85 56.2748 25.9754 56.2748ZM16.718 52.6983C16.4672 52.6983 16.1955 52.6141 15.9865 52.4248C15.485 52.025 15.4224 51.2887 15.8194 50.8048L44.7201 14.9125C45.1171 14.4286 45.8485 14.3444 46.3291 14.7441C46.8307 15.1439 46.8934 15.8803 46.4963 16.3641L17.5956 52.2565C17.4076 52.5089 17.115 52.6351 16.8224 52.6772C16.7807 52.6772 16.7389 52.6772 16.718 52.6772V52.6983ZM33.6446 49.1006C32.4744 49.1006 31.2832 48.7009 30.3011 47.9014C28.0651 46.05 27.7516 42.7259 29.5697 40.4747C31.4086 38.2236 34.7104 37.887 36.9464 39.7384C39.1824 41.5898 39.5167 44.9139 37.6777 47.1651C36.6538 48.4274 35.1492 49.0796 33.6446 49.1006ZM13.2073 48.0907C12.037 48.0907 10.8459 47.7121 9.86371 46.8916C7.62772 45.0401 7.29335 41.716 9.1323 39.4649C10.9712 37.2137 14.273 36.8771 16.509 38.7285C18.745 40.5799 19.0793 43.904 17.2404 46.1552C16.1955 47.4175 14.7118 48.0697 13.2073 48.0907ZM33.7073 46.7864C34.5223 46.7653 35.3373 46.3866 35.9015 45.6923C36.9255 44.43 36.7374 42.5576 35.4835 41.5266C34.2297 40.4957 32.3699 40.6851 31.3459 41.9474C30.322 43.2097 30.51 45.0822 31.743 46.1131C32.2236 46.4918 32.7669 46.7232 33.3311 46.7653C33.4565 46.7653 33.561 46.7653 33.6864 46.7653L33.7073 46.7864ZM13.2699 45.7765C14.0849 45.7555 14.8999 45.3978 15.4641 44.7035C16.4881 43.4412 16.3209 41.5687 15.0462 40.5378C13.7924 39.5069 11.9325 39.6752 10.9086 40.9586C9.88461 42.2209 10.0727 44.0934 11.3265 45.1243C11.8071 45.503 12.3505 45.7344 12.9147 45.7765C13.0401 45.7765 13.1446 45.7765 13.2699 45.7765ZM41.4183 39.549C40.2481 39.549 39.057 39.1703 38.0748 38.3498C35.8388 36.4984 35.5253 33.1742 37.3434 30.923C39.1823 28.6719 42.4841 28.3352 44.7201 30.1866C46.956 32.0381 47.2904 35.3623 45.4515 37.6134C44.4275 38.8758 42.9229 39.549 41.4183 39.549ZM20.9392 38.6023C19.7689 38.6023 18.5778 38.2236 17.5956 37.4031C15.3596 35.5516 15.0253 32.2274 16.8643 29.9762C18.7032 27.7251 22.0049 27.3885 24.2409 29.2399C26.4769 31.0913 26.8112 34.4155 24.9723 36.6667C23.9483 37.929 22.4438 38.5812 20.9392 38.6023ZM41.5019 37.2347C42.3169 37.2137 43.1319 36.856 43.6961 36.1407C44.7201 34.8784 44.532 33.0059 43.2782 31.975C42.0244 30.9441 40.1645 31.1124 39.1405 32.3748C38.1166 33.6371 38.2838 35.5096 39.5376 36.5405C40.0182 36.9402 40.5616 37.1506 41.1258 37.1927C41.2512 37.1927 41.3556 37.1927 41.481 37.1927L41.5019 37.2347ZM21.0019 36.288C21.8169 36.2669 22.6318 35.9093 23.1961 35.215C24.22 33.9527 24.0319 32.0802 22.7781 31.0493C21.5243 30.0184 19.6644 30.2077 18.6405 31.4701C17.6165 32.7324 17.7837 34.6049 19.0584 35.6358C19.5182 36.0145 20.0824 36.2459 20.6466 36.288C20.772 36.288 20.8765 36.288 21.0019 36.288ZM28.7129 29.0506C27.5427 29.0506 26.3515 28.6508 25.3694 27.8513C23.1334 25.9999 22.799 22.6758 24.638 20.4246C26.4769 18.1735 29.7787 17.8369 32.0146 19.6883C34.2506 21.5397 34.5641 24.8638 32.746 27.115C31.7221 28.3773 30.2175 29.0295 28.7129 29.0506ZM28.7756 26.7363C29.5906 26.7152 30.4056 26.3366 30.9698 25.6633C31.9937 24.401 31.8057 22.5285 30.5518 21.4976C29.298 20.4667 27.4382 20.635 26.4142 21.9184C25.3903 23.1807 25.5783 25.0532 26.8321 26.0841C27.2919 26.4628 27.8561 26.6942 28.4203 26.7363C28.5457 26.7363 28.6502 26.7363 28.7756 26.7363ZM36.6216 7.24004C36.3708 7.24004 36.0992 7.15587 35.8902 6.98756C35.3886 6.58783 35.326 5.85148 35.723 5.36759C35.9947 5.03096 36.3081 4.75747 36.6842 4.56812C37.0395 4.37877 37.4366 4.27356 37.8127 4.27356C38.5859 4.27356 39.2337 4.58916 39.7352 5.00993C40.2368 5.40967 40.2995 6.14602 39.9024 6.62991C39.5054 7.1138 38.774 7.19796 38.2725 6.79822C38.0844 6.62991 37.9172 6.58784 37.8545 6.58784C37.8127 6.58784 37.7918 6.58783 37.7291 6.62991C37.6873 6.65095 37.6037 6.71406 37.4992 6.84029C37.2694 7.1138 36.935 7.26108 36.6216 7.26108V7.24004Z" fill="#264092"/>
<circle cx="36.838" cy="13.3458" r="3.92025" stroke="#264092" stroke-width="2.65574"/>
<circle cx="49.2432" cy="23.8409" r="3.92025" stroke="#264092" stroke-width="2.65574"/>
</svg>
