<svg width="61" height="62" viewBox="0 0 61 62" fill="none" xmlns="http://www.w3.org/2000/svg">
<path d="M29.7544 61.3576C29.4963 61.3576 29.2382 61.3576 28.9566 61.3576C27.6897 61.2896 26.4461 60.859 25.3669 60.0432L2.60799 43.0917C-0.254467 40.9614 -0.794097 36.9728 1.4114 34.208L26.0942 3.2738C28.2997 0.508979 32.4291 -0.0122526 35.2916 2.11802L58.0504 19.0695C60.9129 21.1998 61.4525 25.1884 59.247 27.9532L34.5642 58.8874C33.3442 60.4058 31.561 61.2443 29.7309 61.3576H29.7544ZM29.5197 59.2047C29.6605 59.2047 29.8013 59.2047 29.9421 59.182C31.0448 59.046 32.0772 58.5022 32.8045 57.5957L57.4873 26.6614C58.942 24.8258 58.59 22.1969 56.6896 20.7919L33.9307 3.84036C32.0303 2.43529 29.3086 2.77523 27.8539 4.58822L3.1711 35.5224C1.71641 37.3581 2.06835 39.9869 3.96883 41.392L26.7277 58.3435C27.5489 58.9554 28.5343 59.25 29.5197 59.2047ZM29.3555 57.437C29.3555 57.437 29.1678 57.437 29.0739 57.437C28.3466 57.369 27.7366 56.9838 27.2908 56.5532C26.8684 56.1226 26.8919 55.4427 27.3142 55.0348C27.76 54.6269 28.4639 54.6269 28.9097 55.0575C29.0739 55.2388 29.2382 55.2841 29.3086 55.2841C29.3555 55.2841 29.379 55.2841 29.4259 55.2841C29.4728 55.2841 29.5667 55.2161 29.684 55.1254C30.1298 54.7175 30.8337 54.7402 31.256 55.1708C31.6783 55.6014 31.6548 56.2812 31.209 56.6892C30.6694 57.1877 30.0125 57.4597 29.3555 57.4823V57.437ZM30.2002 53.5844C29.4728 53.5844 28.7689 53.3351 28.1354 52.8819L23.5367 49.4598C21.8709 48.2361 21.7301 45.9245 22.9736 44.3608L23.1379 44.1568C24.3814 42.5931 26.7277 42.1399 28.3935 43.3863L32.9922 46.8083C34.6346 48.0548 34.7988 50.3437 33.5553 51.9074L33.3911 52.134C32.6168 53.1085 31.3968 53.6524 30.2002 53.6297V53.5844ZM30.2706 51.4088C30.7398 51.4088 31.256 51.2275 31.6314 50.7516L31.7956 50.525C32.3822 49.7998 32.218 48.8706 31.6548 48.4627L30.1298 47.3296L27.9947 50.0037L29.5197 51.1368C29.7309 51.2955 29.989 51.3861 30.294 51.3861L30.2706 51.4088ZM26.235 48.712L28.3701 46.0378L27.0561 45.0633C26.493 44.6327 25.5311 44.7234 24.9445 45.4486L24.7803 45.6752C24.1937 46.4004 24.358 47.3296 24.9211 47.7375L26.235 48.712ZM17.3426 48.1907C17.0845 48.1907 16.8264 48.1228 16.6152 47.9641C16.1225 47.6015 16.0287 46.9216 16.4041 46.4457L42.0957 14.2651C42.4712 13.7892 43.175 13.6985 43.6677 14.0611C44.1605 14.4237 44.2543 15.1036 43.8789 15.5795L18.1872 47.7602C17.9995 47.9868 17.718 48.1454 17.4364 48.1681C17.413 48.1681 17.366 48.1681 17.3426 48.1681V48.1907ZM36.6289 45.5166C35.9016 45.5166 35.1977 45.2673 34.5642 44.814L29.9655 41.392C28.2997 40.1682 28.1589 37.8567 29.4024 36.293L29.5901 36.089C30.8336 34.5253 33.1799 34.072 34.8458 35.3185L39.4445 38.7405C41.1103 39.9869 41.2511 42.2759 40.0076 43.8396L39.8433 44.0435C39.0691 45.018 37.849 45.5619 36.6524 45.5392L36.6289 45.5166ZM36.6993 43.3636C37.1686 43.3636 37.6848 43.1824 38.0367 42.7064L38.2009 42.5025C38.7875 41.7546 38.6233 40.8481 38.0602 40.4175L36.5351 39.2844L34.4 41.9586L35.9251 43.0917C36.1362 43.2503 36.3943 43.341 36.6993 43.341V43.3636ZM15.3952 42.5478C14.6679 42.5478 13.964 42.2985 13.3305 41.8453L8.73176 38.4232C7.08937 37.1768 6.92514 34.8879 8.19212 33.3242L8.35638 33.0976C9.59991 31.5338 11.9462 31.0806 13.612 32.327L18.2107 35.7491C19.8766 36.9728 20.0173 39.2844 18.7738 40.8481L18.6096 41.0521C17.8353 42.0266 16.6152 42.5704 15.4186 42.5478H15.3952ZM32.6638 40.6668L34.7988 37.9926L33.4849 37.0182C32.9218 36.5876 31.9599 36.6782 31.3733 37.4034L31.209 37.63C30.6225 38.3552 30.7867 39.2844 31.3498 39.6923L32.6638 40.6668ZM15.4656 40.3949C15.9348 40.3949 16.451 40.2136 16.8264 39.7376L16.9906 39.5337C17.5772 38.8085 17.413 37.8793 16.8499 37.4714L15.3952 36.4063L13.2601 39.0804L14.7148 40.1682C14.9259 40.3269 15.184 40.4175 15.4656 40.4175V40.3949ZM42.7996 37.7887C42.0723 37.7887 41.3684 37.5394 40.7349 37.0861L36.1362 33.6641C34.4938 32.4177 34.3296 30.1288 35.5731 28.5651L35.7374 28.3611C36.9809 26.7974 39.3271 26.3442 40.993 27.5679L45.5917 30.99C47.2576 32.2364 47.3983 34.5253 46.1548 36.089L45.9671 36.293C45.1929 37.2675 43.9728 37.8113 42.7762 37.7887H42.7996ZM11.5004 37.7434L13.6355 35.0692L12.2512 34.0494C11.6881 33.6188 10.7261 33.7094 10.1395 34.4346L9.97528 34.6386C9.38871 35.3638 9.55298 36.293 10.1161 36.7236L11.5004 37.7434ZM42.87 35.6358C43.3393 35.6358 43.8555 35.4545 44.2309 34.9785L44.3951 34.7746C44.9817 34.0267 44.8174 33.1202 44.2543 32.6896L42.7293 31.5565L40.6176 34.208H40.5941L42.1192 35.3638C42.3304 35.5224 42.5885 35.6131 42.8935 35.6131L42.87 35.6358ZM21.7066 34.6613C20.9793 34.6613 20.2754 34.412 19.6419 33.9587L15.0432 30.5367C13.4008 29.2903 13.2366 27.0014 14.5036 25.4377L14.6678 25.2337C15.9113 23.67 18.2576 23.2167 19.9235 24.4632L24.5222 27.8852C26.188 29.1316 26.3288 31.4205 25.0618 32.9842L24.8976 33.1882C24.1233 34.1627 22.9032 34.7066 21.7066 34.6839V34.6613ZM38.8344 32.8936L40.9696 30.2421L39.6556 29.2676C39.0925 28.837 38.1305 28.9277 37.544 29.6529L37.3798 29.8568C36.7932 30.582 36.9574 31.5112 37.5205 31.9191L38.8344 32.8936ZM21.777 32.4857C22.2463 32.4857 22.7625 32.3044 23.1379 31.8285L23.3021 31.6245C23.8887 30.8993 23.7245 29.9701 23.1614 29.5622L21.7066 28.4971L19.5716 31.1713L21.0262 32.2364C21.2374 32.395 21.4955 32.4857 21.8005 32.4857H21.777ZM17.7884 29.8342L19.9235 27.16L18.5392 26.1402C17.9761 25.7096 17.0141 25.8003 16.4275 26.5255L16.2633 26.7521C15.6767 27.4773 15.841 28.4064 16.4041 28.8144L17.7884 29.8342ZM49.3692 29.5849C48.6419 29.5849 47.938 29.3356 47.3045 28.8824L42.7058 25.4603C41.04 24.2139 40.8991 21.925 42.1661 20.3613L42.3304 20.1573C43.5739 18.5936 45.9202 18.1404 47.586 19.3868L52.1847 22.8088C53.8506 24.0326 53.9914 26.3442 52.7478 27.9079L52.5836 28.1118C51.8093 29.0863 50.5893 29.6302 49.3927 29.6075L49.3692 29.5849ZM49.4161 27.4093C49.8854 27.4093 50.4015 27.228 50.777 26.7521L50.9412 26.5481C51.5278 25.8003 51.3635 24.8938 50.8004 24.4858L49.2753 23.3527L47.1403 26.0269L48.6653 27.16C48.8765 27.3186 49.1346 27.4093 49.4161 27.4093ZM27.9947 26.7521C27.2673 26.7521 26.5634 26.5028 25.9299 26.0495L21.3313 22.6275C19.6654 21.3811 19.5246 19.0922 20.7681 17.5285L20.9324 17.3018C22.1759 15.7381 24.5222 15.2849 26.188 16.5313L30.7867 19.9533C32.4291 21.1998 32.5934 23.4887 31.3264 25.0524L31.1621 25.279C30.3878 26.2535 29.1678 26.7974 27.9712 26.7747L27.9947 26.7521ZM45.3806 24.7125L47.5156 22.0383L46.2017 21.0638C45.6386 20.6332 44.6767 20.7239 44.0901 21.4491L43.9258 21.6757C43.3393 22.4009 43.5035 23.3301 44.0666 23.738L45.3806 24.7125ZM28.0651 24.5991C28.5343 24.5991 29.0505 24.4179 29.4259 23.9419L29.5901 23.7153C30.1767 22.9901 30.0124 22.061 29.4493 21.653L27.9947 20.5879L25.883 23.2394H25.8596L27.3142 24.3499C27.5254 24.5085 27.7835 24.5991 28.0885 24.5991H28.0651ZM24.0998 21.9476V21.9023L26.235 19.2508L24.8507 18.231C24.2876 17.8004 23.3256 17.8911 22.739 18.6163L22.5748 18.8429C21.9882 19.5681 22.1524 20.4973 22.7156 20.9052L24.0998 21.9476ZM34.5408 18.5483C33.8134 18.5483 33.1096 18.299 32.4761 17.8457L27.8773 14.4237C26.2115 13.1773 26.0707 10.8884 27.3142 9.32467L27.4785 9.09805C28.722 7.53434 31.0683 7.08109 32.7341 8.32753L37.3328 11.7495C38.9752 12.9733 39.1395 15.2849 37.8959 16.8486L37.7317 17.0752C36.9574 18.0497 35.7374 18.5936 34.5408 18.5709V18.5483ZM34.6111 16.3953C35.0804 16.3953 35.5966 16.214 35.972 15.7381L36.1362 15.5115C36.7228 14.7863 36.5586 13.8572 35.9955 13.4492L34.5408 12.3841L32.4057 15.0583L33.8603 16.1461C34.0715 16.3047 34.3296 16.3953 34.6111 16.3953ZM30.646 13.7438L32.781 11.0697L31.3968 10.0499C30.8336 9.61928 29.8717 9.70993 29.2851 10.4351L29.1209 10.6618C28.5343 11.387 28.6985 12.3161 29.2616 12.724L30.646 13.7438ZM32.3118 6.51452C32.0302 6.51452 31.7487 6.40122 31.5375 6.17459C31.3733 5.99329 31.2091 5.94796 31.1387 5.94796C31.1152 5.94796 31.0683 5.94796 31.0213 5.94796C30.9744 5.94796 30.8806 6.01595 30.7633 6.1066C30.3175 6.51452 29.6136 6.51453 29.1913 6.08394C28.7689 5.65336 28.7924 4.97349 29.2147 4.56556C29.8482 3.97634 30.599 3.70439 31.3733 3.79504C32.1007 3.86303 32.7107 4.24829 33.133 4.67887C33.5553 5.10946 33.5319 5.78933 33.1095 6.19725C32.8984 6.40121 32.5934 6.51453 32.3118 6.49187V6.51452Z" fill="#264092"/>
</svg>
