<svg width="48" height="62" viewBox="0 0 48 62" fill="none" xmlns="http://www.w3.org/2000/svg">
<path d="M6.17601 61.3576C2.81892 61.3576 0.706055 58.3243 0.706055 54.9899V36.3036C0.706055 29.4265 5.84734 26.1848 7.42025 22.6883V22.6189L6.8803 22.3179C5.9882 21.7158 5.37782 20.697 5.37782 19.5392V8.30892C5.37782 6.68805 6.55163 5.34505 8.10106 5.02088H8.28886V3.56212C8.28886 2.03387 9.53311 0.806641 11.0825 0.806641H22.4685C24.0179 0.806641 25.2622 2.03387 25.2622 3.56212V4.99774H25.45C26.9994 5.32191 28.1732 6.66491 28.1732 8.28578V11.898H39.5357V11.4349C39.5357 10.9718 39.7 10.5087 40.0287 10.1613C40.3339 9.81402 40.8269 9.53615 41.3903 9.53615H45.5925C46.156 9.53615 46.6255 9.79086 46.9542 10.1613C47.2593 10.5087 47.4472 10.9718 47.4472 11.4349V14.7924C47.4472 15.2555 47.2828 15.7186 46.9542 16.0659C46.6255 16.4133 46.156 16.6911 45.5925 16.6911H41.3903C40.8269 16.6911 40.3339 16.4364 40.0287 16.0659C39.7235 15.7186 39.5357 15.2555 39.5357 14.7924V14.4451H28.1732V19.5392C28.1732 20.697 27.5863 21.7158 26.6707 22.3179L26.2012 22.5726L26.3655 23.0125C27.8915 26.3932 33.0563 29.4497 33.0563 36.3036V54.9899C33.0563 58.3243 30.9434 61.3576 27.5863 61.3576H6.15253H6.17601ZM27.6098 58.8106C29.0653 58.8106 30.4973 57.4675 30.4973 54.9899V36.3036C30.4973 29.9128 25.0509 27.7825 23.6423 23.0357V22.8967H10.0731L9.83829 23.5683C8.07758 27.8288 3.28844 30.2833 3.28844 36.3036V54.9899C3.28844 57.4444 4.72049 58.8106 6.17601 58.8106H27.6098ZM9.60353 52.9754C7.77239 52.9754 6.5751 51.3545 6.5751 49.7337V39.7769C6.5751 38.1329 7.77239 36.5352 9.60353 36.5352H24.3231C26.1308 36.5352 27.3515 38.1561 27.3515 39.7769V49.7337C27.3515 51.3545 26.1543 52.9754 24.3231 52.9754H9.60353ZM24.3231 50.4283C24.3231 50.4283 24.7692 50.2894 24.7692 49.7337V39.7769C24.7692 39.2675 24.417 39.0823 24.3231 39.0823H9.60353C9.48615 39.0823 9.15749 39.2212 9.15749 39.7769V49.7337C9.15749 50.2662 9.50963 50.4283 9.60353 50.4283H24.3231ZM12.8667 47.9507C12.1624 47.9507 11.5755 47.3718 11.5755 46.6772C11.5755 45.9825 12.1624 45.4036 12.8667 45.4036H20.5904C21.2947 45.4036 21.8816 45.9825 21.8816 46.6772C21.8816 47.3718 21.2947 47.9507 20.5904 47.9507H12.8667ZM12.8667 43.7828C12.1624 43.7828 11.5755 43.2039 11.5755 42.5092C11.5755 41.8146 12.1624 41.2357 12.8667 41.2357H20.5904C21.2947 41.2357 21.8816 41.8146 21.8816 42.5092C21.8816 43.2039 21.2947 43.7828 20.5904 43.7828H12.8667ZM8.68796 33.1082C8.47668 33.1082 8.26539 33.0619 8.07758 32.9461C7.44372 32.5988 7.23244 31.8347 7.56111 31.2095L9.72091 27.3889C10.0731 26.7637 10.8478 26.5553 11.4816 26.8794C12.1155 27.2268 12.3268 27.9909 11.9981 28.6161L9.86177 32.4367C9.62701 32.8535 9.18096 33.0851 8.71144 33.0851L8.68796 33.1082ZM24.7692 20.3497C25.2152 20.3497 25.5908 19.9792 25.5908 19.5392V18.4046H7.9602V19.5392C7.9602 19.9792 8.33582 20.3497 8.78187 20.3497H24.7692ZM25.5908 15.8576V8.30892C25.5908 7.86897 25.2152 7.49851 24.7692 7.49851H8.78187C8.33582 7.49851 7.9602 7.86897 7.9602 8.30892V15.8576H25.5908ZM44.8648 14.1441V12.0832H42.1415V14.1441H44.8648ZM22.6798 4.95142V3.56212C22.6798 3.44635 22.5859 3.3537 22.4685 3.3537H11.0825C11.0825 3.3537 10.8713 3.44635 10.8713 3.56212V4.95142H22.6563H22.6798Z" fill="#264092"/>
</svg>
