<svg width="64" height="62" viewBox="0 0 64 62" fill="none" xmlns="http://www.w3.org/2000/svg">
<path d="M29.4572 61.3566C27.5844 61.38 25.7117 61.005 23.9812 60.2551C23.7915 60.1848 23.6019 60.091 23.4123 59.9973C22.0847 59.3411 20.8521 58.4505 19.7853 57.3022L18.7659 56.2476C14.9967 52.2869 14.2856 46.5686 16.5139 41.9517L16.8221 41.4361L2.90685 21.9609C-0.198593 17.6019 -0.198576 12.0007 2.48016 7.73537C2.59869 7.54788 2.71721 7.38383 2.83573 7.19635C3.66543 6.00112 4.75591 4.89963 6.03601 4.00907L7.24499 3.16538C13.1003 -0.935891 21.2313 0.446824 25.3798 6.25891L36.6637 22.0547L40.267 18.7033C45.5059 13.8521 53.7555 14.1099 58.6626 19.3127L59.6819 20.3673C64.589 25.5466 64.3282 33.7023 59.0892 38.5535L38.2046 57.8881C35.7392 60.1614 32.6337 61.3097 29.5046 61.3566H29.4572ZM29.4335 58.4505C31.8515 58.4037 34.2694 57.5131 36.1659 55.7554L46.2882 46.3811L45.577 46.217C44.7947 45.9592 43.9888 45.6546 43.2065 45.2561L41.6182 44.389L40.7174 45.5374C40.1247 46.1702 39.461 46.7326 38.7261 47.2482L37.5171 48.0919C31.6618 52.1932 23.5308 50.8105 19.3823 44.9984L18.7422 44.0844L18.3629 45.3968C17.7466 48.4434 18.5763 51.7479 20.8757 54.2086L21.8951 55.2633C22.8433 56.271 23.9575 57.0444 25.1665 57.56C26.5177 58.1459 27.9637 58.4271 29.4335 58.4037V58.4505ZM30.2395 47.5763C32.1833 47.5294 34.1509 46.9435 35.834 45.7483L37.043 44.9046C41.5945 41.7408 42.6849 35.5068 39.461 31.0072L32.7523 21.6094L31.7092 21.5391C26.9207 21.5156 20.4728 25.3591 17.154 30.3275C16.9406 30.6556 16.7272 30.9837 16.5376 31.3353C16.0635 32.1555 15.6842 33.0461 15.4234 33.9132L15.2338 34.2413L21.7528 43.3813C23.7441 46.1936 26.9681 47.67 30.2158 47.5997L30.2395 47.5763ZM48.801 44.0609L57.0506 36.4208C61.1279 32.6477 61.3176 26.3434 57.5247 22.3125L56.5053 21.2579C52.6887 17.2503 46.3119 17.0394 42.2345 20.7891L38.3231 24.3983L41.8553 29.3198C44.4392 32.9523 44.8659 37.452 43.3961 41.2955L43.1117 41.8814L44.6051 42.7016C44.9607 42.8657 45.34 43.0297 45.6956 43.1704C46.5964 43.5219 47.5209 43.7797 48.4217 43.8969L48.7773 44.0141L48.801 44.0609ZM35.9525 41.5533C35.5732 41.5533 35.194 41.4361 34.9095 41.1783C34.3168 40.6393 34.2694 39.7253 34.8384 39.1394C36.3318 37.5458 36.2133 35.0616 34.6013 33.6085C34.0798 33.1398 33.985 32.3664 34.3406 31.804C34.388 31.7102 34.4591 31.6399 34.5065 31.5696C35.0517 30.9837 35.9762 30.9369 36.5689 31.4759C39.3661 34.0304 39.5558 38.3426 36.9719 41.108C36.7111 41.3892 36.3318 41.5533 35.9525 41.5767V41.5533ZM13.2899 31.4524L13.5507 30.7962C13.93 30.0463 14.3567 29.3198 14.8308 28.6167C17.9599 23.9764 23.3648 20.2501 28.4378 19.0549L30.6899 18.7033L22.9855 7.89942C19.7616 3.39974 13.4796 2.34513 8.9281 5.50897L7.71909 6.35266C6.58122 7.14947 5.65673 8.13378 4.96926 9.23527C2.90687 12.5397 2.88316 16.8988 5.30114 20.2501L13.3136 31.4524H13.2899ZM44.2258 25.8513C44.0599 25.8513 43.8939 25.8044 43.7517 25.7341C43.6569 25.6872 43.5858 25.6404 43.491 25.5935C42.8272 25.1482 42.6613 24.2342 43.1117 23.578C45.2926 20.4845 49.5833 19.7111 52.7125 21.8672C53.3762 22.3125 53.5421 23.2265 53.0917 23.8827C52.6176 24.5389 51.7168 24.7029 51.053 24.2576C49.2514 23.0155 46.786 23.4608 45.5296 25.2419C45.2214 25.6638 44.7236 25.8981 44.2258 25.8513Z" fill="#264092"/>
</svg>
