<svg width="48" height="57" viewBox="0 0 48 57" fill="none" xmlns="http://www.w3.org/2000/svg">
<path d="M6.17185 56.314C4.97056 56.314 3.72559 55.6472 3.3106 54.4247C3.22324 54.1802 3.17956 53.8912 3.17956 53.6245V51.913L3.11404 51.5351L3.17956 51.1572V38.7766L3.11404 37.9987V27.0628L3.17956 26.2627V10.5035L2.72087 10.3701C1.5851 9.88111 0.798828 8.7253 0.798828 7.39166V3.27963C0.798828 1.50144 2.21853 0.0566406 3.96586 0.0566406H23.2083C24.9557 0.0566406 26.3754 1.50144 26.3754 3.27963V7.39166C26.3754 8.7253 25.5891 9.88111 24.4315 10.3701H24.3659V10.5702V53.6689C24.3659 53.9579 24.3223 54.2246 24.2349 54.4691C23.8199 55.6916 22.5749 56.3584 21.3737 56.3584H6.17185V56.314ZM33.1244 56.2029C31.7703 56.2029 30.7 55.0915 30.7 53.7356V51.1572C30.7 50.7349 30.8092 50.3348 30.984 49.9792V49.9347L30.8747 49.6902C30.7437 49.4013 30.6782 49.0679 30.6782 48.7345V46.1561C30.6782 44.8002 31.7703 43.6889 33.1026 43.6889H45.1155C46.4478 43.6889 47.5399 44.8002 47.5399 46.1561V48.7345C47.5399 49.0679 47.4744 49.4013 47.3434 49.6902L47.2123 49.9347V49.9792C47.4307 50.3348 47.5399 50.7349 47.5399 51.1572V53.7356C47.5399 55.0915 46.4478 56.2029 45.1155 56.2029H33.1026H33.1244ZM21.3518 53.8468C21.6794 53.8468 21.8542 53.7134 21.9415 53.6467V52.7354H5.58212V53.6245C5.58212 53.6245 5.82239 53.869 6.17185 53.869H21.3737L21.3518 53.8468ZM45.1373 53.7578H45.1592V51.2239H45.1373H33.1244H33.1026V53.7578C33.1026 53.7578 33.1026 53.7578 33.1244 53.7578H45.1373ZM21.9415 50.2904V10.5702H5.56029V23.6398H5.62581H16.9179C17.4203 23.6398 17.8353 23.8176 18.1848 24.0844C19.0584 24.729 19.4516 25.9292 19.4516 27.0184V37.9542C19.4516 39.0656 19.0584 40.2436 18.1848 40.8882C17.8353 41.155 17.3985 41.3328 16.9179 41.3328H5.58212V50.2904H21.9415ZM33.1026 48.69H45.1592V46.1561C45.1592 46.1561 45.1592 46.1339 45.1373 46.1339H33.1244C33.1244 46.1339 33.1026 46.1339 33.1026 46.1561V48.69ZM34.3694 39.9547C33.4958 39.9547 32.6439 39.4657 32.2071 38.621L31.0495 36.3316C30.4379 35.1091 30.8966 33.6199 32.0979 32.9975L42.7784 27.3962C43.9797 26.7739 45.4431 27.2406 46.0547 28.4631L47.2123 30.7526C47.8239 31.9751 47.3652 33.4643 46.1639 34.0866L35.4833 39.6879C35.1776 39.8435 34.8718 39.9325 34.5442 39.9547C34.4786 39.9547 34.4349 39.9547 34.3694 39.9547ZM16.8087 38.8878C16.9179 38.7099 17.049 38.421 17.049 37.9542V27.0184C17.049 26.5516 16.9179 26.2627 16.8087 26.1293L5.73503 26.0848C5.73503 26.0848 5.6258 26.2849 5.58212 26.4405V38.5321L5.73503 38.8433L16.8087 38.8878ZM34.3694 37.5097C34.3694 37.5097 34.3694 37.5097 34.3913 37.5097L45.0718 31.9084C45.0718 31.9084 45.0718 31.8861 45.0718 31.8639L43.9142 29.5745C43.9142 29.5745 43.8924 29.5745 43.8705 29.5745L33.19 35.1758C33.19 35.1758 33.19 35.1758 33.19 35.198L34.3476 37.4875L34.3694 37.5097ZM7.85367 36.0427C7.19842 36.0427 6.65237 35.487 6.65237 34.8202C6.65237 34.1533 7.19842 33.5977 7.85367 33.5977H13.7727C14.428 33.5977 14.974 34.1533 14.974 34.8202C14.974 35.487 14.428 36.0427 13.7727 36.0427H7.85367ZM7.85367 31.3749C7.19842 31.3749 6.65237 30.8193 6.65237 30.1524C6.65237 29.4856 7.19842 28.9299 7.85367 28.9299H13.7727C14.428 28.9299 14.974 29.4856 14.974 30.1524C14.974 30.8193 14.428 31.3749 13.7727 31.3749H7.85367ZM5.2982 8.12516V2.45719H3.944C3.52901 2.45719 3.17956 2.81284 3.17956 3.23516V7.3472C3.17956 7.76952 3.52901 8.12516 3.944 8.12516H5.2982ZM12.4841 8.12516V2.45719H7.70076V8.12516H12.4841ZM19.3424 8.12516V2.45719H14.8867V8.12516H19.3424ZM23.1865 8.12516C23.6015 8.12516 23.9509 7.76952 23.9509 7.3472V3.23516C23.9509 2.81284 23.6015 2.45719 23.1865 2.45719H21.745V8.12516H23.1865Z" fill="#264092"/>
</svg>
