<svg width="56" height="62" viewBox="0 0 56 62" fill="none" xmlns="http://www.w3.org/2000/svg">
<path d="M26.3613 61.3576C23.4681 61.3576 20.6925 60.6683 19.728 58.4101L16.6231 51.1125C16.5526 50.9461 16.5055 50.7559 16.5055 50.5657V50.3993V49.5911C16.7172 47.5944 18.2932 45.5263 20.1279 43.7911C22.7624 41.3189 26.6906 38.823 31.2539 36.8263C35.8407 34.8295 40.3334 33.6648 43.9323 33.4271C47.2489 33.2131 50.7066 33.7599 51.8122 36.3271V36.3746H51.8357L54.7289 43.1493C55.5522 45.0747 54.6583 47.1903 53.1059 49.092C52.5884 49.7338 52.0004 50.3518 51.3888 50.9223C48.7543 53.3944 44.8261 55.8904 40.2393 57.8871C35.6525 59.8838 31.1598 61.0486 27.5609 61.2863C27.1375 61.3101 26.7376 61.3338 26.3142 61.3338L26.3613 61.3576ZM26.2437 58.5527C26.62 58.5527 27.0199 58.5527 27.4433 58.5051C30.6423 58.2912 34.8057 57.2453 39.1808 55.3199C43.5559 53.4182 47.2019 51.0649 49.5305 48.878C50.1656 48.2837 50.6596 47.737 51.0595 47.2378C52.2356 45.764 52.4002 44.7419 52.1885 44.2665L50.8948 41.2476L50.1892 42.2698C49.6717 42.9116 49.0836 43.5058 48.472 44.1001C45.8376 46.5722 41.9094 49.0682 37.3226 51.0649C32.7358 53.0616 28.243 54.2264 24.6677 54.4641C23.421 54.5354 22.1508 54.5117 20.9982 54.3215H20.9747L22.2449 57.3166C22.4801 57.8871 23.6327 58.5527 26.1966 58.5764L26.2437 58.5527ZM23.3269 51.7067C23.7033 51.7067 24.1032 51.7067 24.5266 51.6592C25.3263 51.6116 26.1731 51.4928 27.0905 51.3502L29.7014 50.7797L34.0765 38.7517L32.3829 39.4173C28.0078 41.3189 24.3619 43.6722 22.0332 45.8591C19.5399 48.2124 19.093 49.8288 19.3752 50.4706C19.6104 51.0411 20.763 51.7067 23.3269 51.7305V51.7067ZM33.018 49.7575C34.0765 49.3772 35.1585 48.9731 36.2406 48.4977C40.6157 46.596 44.2381 44.2427 46.5903 42.0558C47.2019 41.4853 47.7193 40.9386 48.0957 40.4394C49.2718 38.9656 49.46 37.9435 49.2483 37.4443C48.966 36.8025 47.5312 36.0181 44.0969 36.232C42.4974 36.3271 40.6627 36.6599 38.6633 37.1828L37.4167 37.5632L32.971 49.7575H33.018ZM30.0542 29.6713C29.231 29.6951 28.4077 29.6713 27.5609 29.5525C23.9855 29.1483 19.5399 27.7934 15.0472 25.5828C10.5544 23.3721 6.74385 20.7098 4.22699 18.1188C1.8983 15.7417 0.0400607 12.7228 1.23969 10.2031L4.67391 3.04816C4.74448 2.88176 4.86209 2.71536 5.00322 2.59651L5.14436 2.50143L5.75593 1.95471C7.40248 0.789946 9.96638 0.647321 12.4597 0.932569C16.0351 1.33667 20.4808 2.69159 24.9735 4.90227C29.4662 7.11294 33.2768 9.77525 35.7936 12.3663C38.1223 14.7433 39.9806 17.7622 38.7809 20.2819V20.3294H38.7574L35.5819 26.9852C34.6646 28.8869 32.5005 29.5762 30.0778 29.6475L30.0542 29.6713ZM30.1013 26.8664C31.9831 26.7951 32.8534 26.2721 33.0651 25.7967L34.4764 22.8254L33.2533 22.9442C32.4535 22.9442 31.6067 22.9442 30.7834 22.8254C27.2081 22.445 22.7624 21.0663 18.2697 18.8794C13.777 16.6688 9.96638 14.0064 7.44952 11.4154C6.5792 10.5121 5.75593 9.53755 5.16788 8.51541L3.75655 11.4154C3.45077 12.0572 3.80359 13.6736 6.22637 16.1458C8.48449 18.4515 12.0128 20.9475 16.2938 23.0393C20.5748 25.1311 24.7147 26.391 27.8902 26.7237C28.7605 26.8188 29.4897 26.8426 30.1013 26.8188V26.8664ZM33.3003 20.1393C35.1585 20.068 36.0524 19.545 36.2876 19.0696C36.5934 18.4278 36.2406 16.8114 33.8178 14.3392C32.6887 13.1982 31.2539 11.9859 29.5603 10.8212L28.4547 10.108L16.4114 14.6958C17.3758 15.2663 18.4108 15.813 19.4693 16.336C23.7503 18.4278 27.8902 19.6876 31.0657 20.0442C31.9125 20.1393 32.6417 20.163 33.2768 20.1393H33.3003ZM13.4947 12.8179L25.3733 8.30147L23.7738 7.44573C19.4928 5.35391 15.3529 4.09407 12.1775 3.73751C8.79028 3.35718 7.28486 4.0703 6.97908 4.71211C6.67329 5.35391 7.02612 6.97031 9.4489 9.44246C10.0134 10.013 10.6485 10.6072 11.3777 11.2015L13.5182 12.8179H13.4947Z" fill="#264092"/>
</svg>
