<svg width="553" height="553" viewBox="0 0 553 553" fill="none" xmlns="http://www.w3.org/2000/svg">
<path opacity="0.08" d="M65.6997 197.449C51.7229 197.449 38.3185 203.001 28.4354 212.884C18.5523 222.768 13 236.172 13 250.149L13 302.848C13 316.825 18.5523 330.23 28.4354 340.113C38.3185 349.996 51.7229 355.548 65.6997 355.548H171.099C178.088 355.548 184.79 358.324 189.731 363.266C194.673 368.207 197.449 374.91 197.449 381.898V487.298C197.449 501.274 203.001 514.679 212.884 524.562C222.768 534.445 236.172 539.997 250.149 539.997H302.848C316.825 539.997 330.23 534.445 340.113 524.562C349.996 514.679 355.548 501.274 355.548 487.298V381.898C355.548 374.91 358.324 368.207 363.266 363.266C368.207 358.324 374.91 355.548 381.898 355.548H487.298C501.274 355.548 514.679 349.996 524.562 340.113C534.445 330.23 539.997 316.825 539.997 302.848V250.149C539.997 236.172 534.445 222.768 524.562 212.884C514.679 203.001 501.274 197.449 487.298 197.449H381.898C374.91 197.449 368.207 194.673 363.266 189.731C358.324 184.79 355.548 178.088 355.548 171.099V65.6997C355.548 51.7229 349.996 38.3185 340.113 28.4354C330.23 18.5523 316.825 13 302.848 13L250.149 13C236.172 13 222.768 18.5523 212.884 28.4354C203.001 38.3185 197.449 51.7229 197.449 65.6997V171.099C197.449 178.088 194.673 184.79 189.731 189.731C184.79 194.673 178.088 197.449 171.099 197.449H65.6997Z" stroke="#264092" stroke-width="25" stroke-linecap="round" stroke-linejoin="round"/>
</svg>
