<svg width="205" height="205" viewBox="0 0 205 205" fill="none" xmlns="http://www.w3.org/2000/svg">
<path opacity="0.08" d="M26.9 74.15C21.8874 74.15 17.0801 76.1412 13.5357 79.6857C9.99124 83.2301 8 88.0374 8 93.05V111.95C8 116.963 9.99124 121.77 13.5357 125.314C17.0801 128.859 21.8874 130.85 26.9 130.85H64.7C67.2063 130.85 69.6099 131.846 71.3822 133.618C73.1544 135.39 74.15 137.794 74.15 140.3V178.1C74.15 183.113 76.1412 187.92 79.6857 191.464C83.2301 195.009 88.0374 197 93.05 197H111.95C116.963 197 121.77 195.009 125.314 191.464C128.859 187.92 130.85 183.113 130.85 178.1V140.3C130.85 137.794 131.846 135.39 133.618 133.618C135.39 131.846 137.794 130.85 140.3 130.85H178.1C183.113 130.85 187.92 128.859 191.464 125.314C195.009 121.77 197 116.963 197 111.95V93.05C197 88.0374 195.009 83.2301 191.464 79.6857C187.92 76.1412 183.113 74.15 178.1 74.15H140.3C137.794 74.15 135.39 73.1544 133.618 71.3822C131.846 69.6099 130.85 67.2063 130.85 64.7V26.9C130.85 21.8874 128.859 17.0801 125.314 13.5357C121.77 9.99124 116.963 8 111.95 8L93.05 8C88.0374 8 83.2301 9.99124 79.6857 13.5357C76.1412 17.0801 74.15 21.8874 74.15 26.9V64.7C74.15 67.2063 73.1544 69.6099 71.3822 71.3822C69.6099 73.1544 67.2063 74.15 64.7 74.15H26.9Z" stroke="#264092" stroke-width="15" stroke-linecap="round" stroke-linejoin="round"/>
</svg>
