<svg width="348" height="229" viewBox="0 0 348 229" fill="none" xmlns="http://www.w3.org/2000/svg">
<g style="mix-blend-mode:plus-lighter" opacity="0.15">
<path d="M30.3337 104.244C21.7537 106.753 14.5217 112.568 10.2289 120.409C5.93606 128.25 4.93394 137.476 7.443 146.056L16.9034 178.407C19.4125 186.987 25.2272 194.219 33.0684 198.512C40.9096 202.805 50.1349 203.807 58.715 201.298L123.417 182.377C127.707 181.122 132.32 181.623 136.241 183.77C140.161 185.916 143.069 189.532 144.323 193.822L163.244 258.524C165.753 267.104 171.568 274.336 179.409 278.629C187.25 282.922 196.475 283.924 205.055 281.415L237.407 271.955C245.987 269.446 253.219 263.631 257.511 255.79C261.804 247.949 262.806 238.723 260.297 230.143L241.377 165.441C240.122 161.151 240.623 156.538 242.769 152.618C244.916 148.697 248.532 145.79 252.822 144.535L317.524 125.614C326.104 123.105 333.336 117.29 337.629 109.449C341.922 101.608 342.924 92.3827 340.415 83.8026L330.954 51.4515C328.445 42.8714 322.631 35.6395 314.789 31.3467C306.948 27.0538 297.723 26.0517 289.143 28.5608L224.441 47.4816C220.151 48.7362 215.538 48.2351 211.617 46.0887C207.697 43.9423 204.789 40.3263 203.535 36.0363L184.614 -28.666C182.105 -37.2461 176.29 -44.478 168.449 -48.7708C160.608 -53.0637 151.382 -54.0658 142.802 -51.5567L110.451 -42.0963C101.871 -39.5873 94.6393 -33.7726 90.3464 -25.9314C86.0536 -18.0902 85.0515 -8.86481 87.5605 -0.284752L106.481 64.4175C107.736 68.7076 107.235 73.3202 105.088 77.2408C102.942 81.1614 99.326 84.0688 95.036 85.3233L30.3337 104.244Z" stroke="#264092" stroke-width="12" stroke-linecap="round" stroke-linejoin="round"/>
</g>
</svg>
